<svg xmlns="http://www.w3.org/2000/svg" viewBox="20 21 60 70" role="img" aria-label="Linux penguin">
  <ellipse cx="50" cy="55" rx="27" ry="34" fill="#0b0b0b"/>
  <ellipse cx="50" cy="59" rx="19" ry="26" fill="#f7f4ee"/>
  <ellipse cx="41" cy="39" rx="8" ry="10" fill="#f7f4ee"/>
  <ellipse cx="59" cy="39" rx="8" ry="10" fill="#f7f4ee"/>
  <circle cx="43" cy="40" r="3" fill="#141414"/>
  <circle cx="57" cy="40" r="3" fill="#141414"/>
  <path d="M50 44 39 50l11 7 11-7-11-6Z" fill="#f2b134"/>
  <path d="M27 53c-7 7-9 18-5 25 5-2 10-7 14-13l-9-12Z" fill="#0b0b0b"/>
  <path d="M73 53c7 7 9 18 5 25-5-2-10-7-14-13l9-12Z" fill="#0b0b0b"/>
  <path d="M34 81c-7 1-12 5-14 10 8 2 16 1 22-3l-8-7Z" fill="#f2b134"/>
  <path d="M66 81c7 1 12 5 14 10-8 2-16 1-22-3l8-7Z" fill="#f2b134"/>
</svg>
